<svg xmlns="http://www.w3.org/2000/svg" xmlns:xlink="http://www.w3.org/1999/xlink" width="500" zoomAndPan="magnify" viewBox="0 0 375 374.999991" height="500" preserveAspectRatio="xMidYMid meet" version="1.0"><defs><g/><clipPath id="6b5bf310b6"><path d="M 83 156 L 102 156 L 102 174 L 83 174 Z M 83 156 " clip-rule="nonzero"/></clipPath><clipPath id="e761cb3f5f"><path d="M 101.003906 164.789062 C 101.003906 165.359375 100.949219 165.917969 100.839844 166.476562 C 100.726562 167.03125 100.5625 167.570312 100.347656 168.09375 C 100.128906 168.617188 99.863281 169.113281 99.546875 169.585938 C 99.230469 170.058594 98.871094 170.492188 98.472656 170.894531 C 98.070312 171.292969 97.632812 171.652344 97.160156 171.96875 C 96.6875 172.28125 96.1875 172.546875 95.664062 172.765625 C 95.136719 172.980469 94.597656 173.144531 94.039062 173.253906 C 93.484375 173.367188 92.917969 173.421875 92.351562 173.421875 C 91.785156 173.421875 91.21875 173.367188 90.664062 173.253906 C 90.105469 173.144531 89.566406 172.980469 89.039062 172.765625 C 88.515625 172.546875 88.015625 172.28125 87.542969 171.96875 C 87.070312 171.652344 86.632812 171.292969 86.230469 170.894531 C 85.832031 170.492188 85.472656 170.058594 85.15625 169.585938 C 84.839844 169.113281 84.574219 168.617188 84.355469 168.09375 C 84.140625 167.570312 83.976562 167.03125 83.863281 166.476562 C 83.753906 165.917969 83.699219 165.359375 83.699219 164.789062 C 83.699219 164.222656 83.753906 163.664062 83.863281 163.105469 C 83.976562 162.550781 84.140625 162.011719 84.355469 161.488281 C 84.574219 160.964844 84.839844 160.46875 85.15625 159.996094 C 85.472656 159.523438 85.832031 159.089844 86.230469 158.6875 C 86.632812 158.289062 87.070312 157.929688 87.542969 157.613281 C 88.015625 157.300781 88.515625 157.035156 89.039062 156.816406 C 89.566406 156.601562 90.105469 156.4375 90.664062 156.328125 C 91.21875 156.214844 91.785156 156.160156 92.351562 156.160156 C 92.917969 156.160156 93.484375 156.214844 94.039062 156.328125 C 94.597656 156.4375 95.136719 156.601562 95.664062 156.816406 C 96.1875 157.035156 96.6875 157.300781 97.160156 157.613281 C 97.632812 157.929688 98.070312 158.289062 98.472656 158.6875 C 98.871094 159.089844 99.230469 159.523438 99.546875 159.996094 C 99.863281 160.46875 100.128906 160.964844 100.347656 161.488281 C 100.5625 162.011719 100.726562 162.550781 100.839844 163.105469 C 100.949219 163.664062 101.003906 164.222656 101.003906 164.789062 Z M 101.003906 164.789062 " clip-rule="nonzero"/></clipPath><linearGradient x1="32" gradientTransform="matrix(1.442308, 0, 0, 1.438399, 46.197757, 118.762207)" y1="25.999989" x2="32" gradientUnits="userSpaceOnUse" y2="37.999988" id="806acef809"><stop stop-opacity="1" stop-color="rgb(45.947266%, 77.253723%, 100%)" offset="0"/><stop stop-opacity="1" stop-color="rgb(46.141052%, 77.209473%, 100%)" offset="0.0078125"/><stop stop-opacity="1" stop-color="rgb(46.5271%, 77.120972%, 100%)" offset="0.015625"/><stop stop-opacity="1" stop-color="rgb(46.914673%, 77.032471%, 100%)" offset="0.0234375"/><stop stop-opacity="1" stop-color="rgb(47.30072%, 76.942444%, 100%)" offset="0.03125"/><stop stop-opacity="1" stop-color="rgb(47.688293%, 76.853943%, 100%)" offset="0.0390625"/><stop stop-opacity="1" stop-color="rgb(48.074341%, 76.765442%, 100%)" offset="0.046875"/><stop stop-opacity="1" stop-color="rgb(48.461914%, 76.676941%, 100%)" offset="0.0546875"/><stop stop-opacity="1" stop-color="rgb(48.849487%, 76.58844%, 100%)" offset="0.0625"/><stop stop-opacity="1" stop-color="rgb(49.235535%, 76.498413%, 100%)" offset="0.0703125"/><stop stop-opacity="1" stop-color="rgb(49.623108%, 76.409912%, 100%)" offset="0.078125"/><stop stop-opacity="1" stop-color="rgb(50.009155%, 76.321411%, 100%)" offset="0.0859375"/><stop stop-opacity="1" stop-color="rgb(50.396729%, 76.23291%, 100%)" offset="0.09375"/><stop stop-opacity="1" stop-color="rgb(50.784302%, 76.144409%, 100%)" offset="0.101562"/><stop stop-opacity="1" stop-color="rgb(51.170349%, 76.054382%, 100%)" offset="0.109375"/><stop stop-opacity="1" stop-color="rgb(51.557922%, 75.965881%, 100%)" offset="0.117187"/><stop stop-opacity="1" stop-color="rgb(51.94397%, 75.87738%, 100%)" offset="0.125"/><stop stop-opacity="1" stop-color="rgb(52.331543%, 75.788879%, 100%)" offset="0.132812"/><stop stop-opacity="1" stop-color="rgb(52.71759%, 75.700378%, 100%)" offset="0.140625"/><stop stop-opacity="1" stop-color="rgb(53.105164%, 75.611877%, 100%)" offset="0.148437"/><stop stop-opacity="1" stop-color="rgb(53.492737%, 75.521851%, 100%)" offset="0.15625"/><stop stop-opacity="1" stop-color="rgb(53.878784%, 75.43335%, 100%)" offset="0.164062"/><stop stop-opacity="1" stop-color="rgb(54.266357%, 75.344849%, 100%)" offset="0.171875"/><stop stop-opacity="1" stop-color="rgb(54.652405%, 75.256348%, 100%)" offset="0.179687"/><stop stop-opacity="1" stop-color="rgb(55.039978%, 75.167847%, 100%)" offset="0.1875"/><stop stop-opacity="1" stop-color="rgb(55.426025%, 75.07782%, 100%)" offset="0.195312"/><stop stop-opacity="1" stop-color="rgb(55.813599%, 74.989319%, 100%)" offset="0.203125"/><stop stop-opacity="1" stop-color="rgb(56.201172%, 74.900818%, 100%)" offset="0.210937"/><stop stop-opacity="1" stop-color="rgb(56.587219%, 74.812317%, 100%)" offset="0.21875"/><stop stop-opacity="1" stop-color="rgb(56.974792%, 74.723816%, 100%)" offset="0.226562"/><stop stop-opacity="1" stop-color="rgb(57.36084%, 74.633789%, 100%)" offset="0.234375"/><stop stop-opacity="1" stop-color="rgb(57.748413%, 74.545288%, 100%)" offset="0.242187"/><stop stop-opacity="1" stop-color="rgb(58.13446%, 74.456787%, 100%)" offset="0.25"/><stop stop-opacity="1" stop-color="rgb(58.522034%, 74.368286%, 100%)" offset="0.257812"/><stop stop-opacity="1" stop-color="rgb(58.909607%, 74.279785%, 100%)" offset="0.265625"/><stop stop-opacity="1" stop-color="rgb(59.295654%, 74.189758%, 100%)" offset="0.273437"/><stop stop-opacity="1" stop-color="rgb(59.683228%, 74.101257%, 100%)" offset="0.28125"/><stop stop-opacity="1" stop-color="rgb(60.069275%, 74.012756%, 100%)" offset="0.289062"/><stop stop-opacity="1" stop-color="rgb(60.456848%, 73.924255%, 100%)" offset="0.296875"/><stop stop-opacity="1" stop-color="rgb(60.842896%, 73.835754%, 100%)" offset="0.304688"/><stop stop-opacity="1" stop-color="rgb(61.230469%, 73.747253%, 100%)" offset="0.3125"/><stop stop-opacity="1" stop-color="rgb(61.618042%, 73.657227%, 100%)" offset="0.320312"/><stop stop-opacity="1" stop-color="rgb(62.004089%, 73.568726%, 100%)" offset="0.328125"/><stop stop-opacity="1" stop-color="rgb(62.391663%, 73.480225%, 100%)" offset="0.335937"/><stop stop-opacity="1" stop-color="rgb(62.77771%, 73.391724%, 100%)" offset="0.34375"/><stop stop-opacity="1" stop-color="rgb(63.165283%, 73.303223%, 100%)" offset="0.351562"/><stop stop-opacity="1" stop-color="rgb(63.551331%, 73.213196%, 100%)" offset="0.359375"/><stop stop-opacity="1" stop-color="rgb(63.938904%, 73.124695%, 100%)" offset="0.367187"/><stop stop-opacity="1" stop-color="rgb(64.326477%, 73.036194%, 100%)" offset="0.375"/><stop stop-opacity="1" stop-color="rgb(64.712524%, 72.947693%, 100%)" offset="0.382812"/><stop stop-opacity="1" stop-color="rgb(65.100098%, 72.859192%, 100%)" offset="0.390625"/><stop stop-opacity="1" stop-color="rgb(65.486145%, 72.769165%, 100%)" offset="0.398437"/><stop stop-opacity="1" stop-color="rgb(65.873718%, 72.680664%, 100%)" offset="0.40625"/><stop stop-opacity="1" stop-color="rgb(66.261292%, 72.592163%, 100%)" offset="0.414062"/><stop stop-opacity="1" stop-color="rgb(66.647339%, 72.503662%, 100%)" offset="0.421875"/><stop stop-opacity="1" stop-color="rgb(67.034912%, 72.415161%, 100%)" offset="0.429687"/><stop stop-opacity="1" stop-color="rgb(67.420959%, 72.32666%, 100%)" offset="0.4375"/><stop stop-opacity="1" stop-color="rgb(67.808533%, 72.236633%, 100%)" offset="0.445312"/><stop stop-opacity="1" stop-color="rgb(68.19458%, 72.148132%, 100%)" offset="0.453125"/><stop stop-opacity="1" stop-color="rgb(68.582153%, 72.059631%, 100%)" offset="0.460937"/><stop stop-opacity="1" stop-color="rgb(68.969727%, 71.97113%, 100%)" offset="0.46875"/><stop stop-opacity="1" stop-color="rgb(69.355774%, 71.882629%, 100%)" offset="0.476562"/><stop stop-opacity="1" stop-color="rgb(69.743347%, 71.792603%, 100%)" offset="0.484375"/><stop stop-opacity="1" stop-color="rgb(70.129395%, 71.704102%, 100%)" offset="0.492188"/><stop stop-opacity="1" stop-color="rgb(70.516968%, 71.615601%, 100%)" offset="0.5"/><stop stop-opacity="1" stop-color="rgb(70.903015%, 71.5271%, 100%)" offset="0.507812"/><stop stop-opacity="1" stop-color="rgb(71.290588%, 71.438599%, 100%)" offset="0.515625"/><stop stop-opacity="1" stop-color="rgb(71.678162%, 71.348572%, 100%)" offset="0.523438"/><stop stop-opacity="1" stop-color="rgb(72.064209%, 71.260071%, 100%)" offset="0.53125"/><stop stop-opacity="1" stop-color="rgb(72.451782%, 71.17157%, 100%)" offset="0.539062"/><stop stop-opacity="1" stop-color="rgb(72.83783%, 71.083069%, 100%)" offset="0.546875"/><stop stop-opacity="1" stop-color="rgb(73.225403%, 70.994568%, 100%)" offset="0.554687"/><stop stop-opacity="1" stop-color="rgb(73.61145%, 70.906067%, 100%)" offset="0.5625"/><stop stop-opacity="1" stop-color="rgb(73.999023%, 70.81604%, 100%)" offset="0.570312"/><stop stop-opacity="1" stop-color="rgb(74.386597%, 70.727539%, 100%)" offset="0.578125"/><stop stop-opacity="1" stop-color="rgb(74.772644%, 70.639038%, 100%)" offset="0.585938"/><stop stop-opacity="1" stop-color="rgb(75.160217%, 70.550537%, 100%)" offset="0.59375"/><stop stop-opacity="1" stop-color="rgb(75.546265%, 70.462036%, 100%)" offset="0.601563"/><stop stop-opacity="1" stop-color="rgb(75.933838%, 70.372009%, 100%)" offset="0.609375"/><stop stop-opacity="1" stop-color="rgb(76.319885%, 70.283508%, 100%)" offset="0.617188"/><stop stop-opacity="1" stop-color="rgb(76.707458%, 70.195007%, 100%)" offset="0.625"/><stop stop-opacity="1" stop-color="rgb(77.095032%, 70.106506%, 100%)" offset="0.632813"/><stop stop-opacity="1" stop-color="rgb(77.481079%, 70.018005%, 100%)" offset="0.640625"/><stop stop-opacity="1" stop-color="rgb(77.868652%, 69.927979%, 100%)" offset="0.648438"/><stop stop-opacity="1" stop-color="rgb(78.2547%, 69.839478%, 100%)" offset="0.65625"/><stop stop-opacity="1" stop-color="rgb(78.642273%, 69.750977%, 100%)" offset="0.664063"/><stop stop-opacity="1" stop-color="rgb(79.029846%, 69.662476%, 100%)" offset="0.671875"/><stop stop-opacity="1" stop-color="rgb(79.415894%, 69.573975%, 100%)" offset="0.679688"/><stop stop-opacity="1" stop-color="rgb(79.803467%, 69.483948%, 100%)" offset="0.6875"/><stop stop-opacity="1" stop-color="rgb(80.189514%, 69.395447%, 100%)" offset="0.695312"/><stop stop-opacity="1" stop-color="rgb(80.577087%, 69.306946%, 100%)" offset="0.703125"/><stop stop-opacity="1" stop-color="rgb(80.963135%, 69.218445%, 100%)" offset="0.710938"/><stop stop-opacity="1" stop-color="rgb(81.350708%, 69.129944%, 100%)" offset="0.71875"/><stop stop-opacity="1" stop-color="rgb(81.738281%, 69.041443%, 100%)" offset="0.726563"/><stop stop-opacity="1" stop-color="rgb(82.124329%, 68.951416%, 100%)" offset="0.734375"/><stop stop-opacity="1" stop-color="rgb(82.511902%, 68.862915%, 100%)" offset="0.742188"/><stop stop-opacity="1" stop-color="rgb(82.897949%, 68.774414%, 100%)" offset="0.75"/><stop stop-opacity="1" stop-color="rgb(83.285522%, 68.685913%, 100%)" offset="0.757813"/><stop stop-opacity="1" stop-color="rgb(83.67157%, 68.597412%, 100%)" offset="0.765625"/><stop stop-opacity="1" stop-color="rgb(84.059143%, 68.507385%, 100%)" offset="0.773438"/><stop stop-opacity="1" stop-color="rgb(84.446716%, 68.418884%, 100%)" offset="0.78125"/><stop stop-opacity="1" stop-color="rgb(84.832764%, 68.330383%, 100%)" offset="0.789063"/><stop stop-opacity="1" stop-color="rgb(85.220337%, 68.241882%, 100%)" offset="0.796875"/><stop stop-opacity="1" stop-color="rgb(85.606384%, 68.153381%, 100%)" offset="0.804688"/><stop stop-opacity="1" stop-color="rgb(85.993958%, 68.063354%, 100%)" offset="0.8125"/><stop stop-opacity="1" stop-color="rgb(86.380005%, 67.974854%, 100%)" offset="0.820312"/><stop stop-opacity="1" stop-color="rgb(86.767578%, 67.886353%, 100%)" offset="0.828125"/><stop stop-opacity="1" stop-color="rgb(87.155151%, 67.797852%, 100%)" offset="0.835938"/><stop stop-opacity="1" stop-color="rgb(87.541199%, 67.709351%, 100%)" offset="0.84375"/><stop stop-opacity="1" stop-color="rgb(87.928772%, 67.62085%, 100%)" offset="0.851562"/><stop stop-opacity="1" stop-color="rgb(88.314819%, 67.530823%, 100%)" offset="0.859375"/><stop stop-opacity="1" stop-color="rgb(88.702393%, 67.442322%, 100%)" offset="0.867188"/><stop stop-opacity="1" stop-color="rgb(89.08844%, 67.353821%, 100%)" offset="0.875"/><stop stop-opacity="1" stop-color="rgb(89.476013%, 67.26532%, 100%)" offset="0.882813"/><stop stop-opacity="1" stop-color="rgb(89.863586%, 67.176819%, 100%)" offset="0.890625"/><stop stop-opacity="1" stop-color="rgb(90.127563%, 67.115784%, 100%)" offset="0.90625"/><stop stop-opacity="1" stop-color="rgb(90.19928%, 67.098999%, 100%)" offset="0.9375"/><stop stop-opacity="1" stop-color="rgb(90.19928%, 67.098999%, 100%)" offset="1"/></linearGradient><clipPath id="cb4464c032"><path d="M 54.851562 131 L 129.851562 131 L 129.851562 198.714844 L 54.851562 198.714844 Z M 54.851562 131 " clip-rule="nonzero"/></clipPath><clipPath id="4cb41745ff"><path d="M 129.851562 164.789062 C 129.851562 159.386719 123.730469 154.699219 114.199219 151.855469 C 114.515625 150.375 114.785156 148.914062 114.953125 147.519531 C 115.902344 139.632812 114.257812 134.109375 110.324219 131.964844 C 106.386719 129.824219 100.839844 131.429688 94.699219 136.492188 C 93.917969 137.136719 93.132812 137.839844 92.351562 138.578125 C 91.570312 137.839844 90.785156 137.136719 90.003906 136.492188 C 83.863281 131.429688 78.3125 129.828125 74.378906 131.964844 C 70.445312 134.109375 68.800781 139.632812 69.75 147.519531 C 69.917969 148.917969 70.1875 150.375 70.503906 151.855469 C 60.972656 154.699219 54.851562 159.386719 54.851562 164.789062 C 54.851562 170.195312 60.972656 174.882812 70.503906 177.726562 C 70.1875 179.207031 69.917969 180.667969 69.75 182.0625 C 68.800781 189.949219 70.445312 195.472656 74.378906 197.613281 C 75.519531 198.234375 76.789062 198.539062 78.171875 198.539062 C 81.570312 198.539062 85.636719 196.6875 90.003906 193.089844 C 90.785156 192.445312 91.570312 191.742188 92.351562 191.003906 C 93.132812 191.742188 93.917969 192.445312 94.699219 193.089844 C 99.066406 196.6875 103.132812 198.539062 106.53125 198.539062 C 107.914062 198.539062 109.1875 198.234375 110.324219 197.613281 C 114.257812 195.472656 115.902344 189.949219 114.953125 182.0625 C 114.785156 180.664062 114.515625 179.207031 114.199219 177.726562 C 123.730469 174.882812 129.851562 170.195312 129.851562 164.789062 Z M 96.539062 138.707031 C 101.628906 134.511719 106.148438 132.972656 108.941406 134.492188 C 111.730469 136.007812 112.875 140.632812 112.089844 147.175781 C 111.9375 148.4375 111.695312 149.757812 111.414062 151.101562 C 108.359375 150.355469 105.023438 149.785156 101.472656 149.421875 C 99.21875 146.152344 96.835938 143.164062 94.394531 140.601562 C 95.105469 139.933594 95.820312 139.296875 96.539062 138.707031 Z M 103.746094 170.996094 C 102.515625 173.242188 101.207031 175.390625 99.847656 177.429688 C 97.464844 177.628906 94.964844 177.738281 92.351562 177.738281 C 89.738281 177.738281 87.238281 177.628906 84.855469 177.429688 C 83.496094 175.386719 82.1875 173.242188 80.957031 170.996094 C 79.828125 168.929688 78.796875 166.855469 77.867188 164.789062 C 78.796875 162.726562 79.828125 160.652344 80.957031 158.585938 C 82.1875 156.339844 83.496094 154.191406 84.855469 152.152344 C 87.238281 151.953125 89.738281 151.84375 92.351562 151.84375 C 94.964844 151.84375 97.464844 151.953125 99.847656 152.152344 C 101.207031 154.195312 102.515625 156.339844 103.746094 158.585938 C 104.875 160.652344 105.90625 162.726562 106.835938 164.789062 C 105.90625 166.855469 104.875 168.929688 103.746094 170.996094 Z M 108.328125 168.367188 C 109.308594 170.871094 110.113281 173.320312 110.746094 175.699219 C 108.519531 176.238281 106.117188 176.695312 103.523438 177.035156 C 104.46875 175.523438 105.398438 173.980469 106.277344 172.371094 C 107.007812 171.042969 107.683594 169.703125 108.328125 168.367188 Z M 92.351562 186.945312 C 90.515625 185.019531 88.714844 182.828125 86.972656 180.457031 C 88.726562 180.558594 90.519531 180.613281 92.351562 180.613281 C 94.183594 180.613281 95.976562 180.558594 97.730469 180.457031 C 95.988281 182.828125 94.1875 185.019531 92.351562 186.945312 Z M 81.179688 177.035156 C 78.585938 176.695312 76.183594 176.238281 73.953125 175.699219 C 74.585938 173.320312 75.390625 170.867188 76.371094 168.367188 C 77.019531 169.707031 77.695312 171.042969 78.425781 172.375 C 79.304688 173.980469 80.230469 175.523438 81.179688 177.035156 Z M 76.375 161.214844 C 75.394531 158.710938 74.589844 156.257812 73.957031 153.882812 C 76.183594 153.34375 78.585938 152.886719 81.179688 152.546875 C 80.234375 154.058594 79.304688 155.601562 78.425781 157.210938 C 77.695312 158.539062 77.019531 159.878906 76.375 161.214844 Z M 92.351562 142.636719 C 94.1875 144.5625 95.988281 146.753906 97.730469 149.125 C 95.976562 149.023438 94.183594 148.96875 92.351562 148.96875 C 90.519531 148.96875 88.726562 149.023438 86.972656 149.125 C 88.714844 146.753906 90.515625 144.5625 92.351562 142.636719 Z M 106.277344 157.210938 C 105.398438 155.605469 104.472656 154.058594 103.523438 152.546875 C 106.117188 152.886719 108.519531 153.34375 110.75 153.882812 C 110.117188 156.261719 109.3125 158.714844 108.332031 161.214844 C 107.683594 159.878906 107.007812 158.539062 106.277344 157.210938 Z M 72.613281 147.175781 C 71.824219 140.632812 72.972656 136.007812 75.761719 134.492188 C 76.46875 134.109375 77.28125 133.921875 78.1875 133.921875 C 80.871094 133.921875 84.359375 135.570312 88.167969 138.707031 C 88.882812 139.296875 89.597656 139.933594 90.3125 140.605469 C 87.871094 143.167969 85.488281 146.152344 83.234375 149.425781 C 79.679688 149.785156 76.34375 150.359375 73.292969 151.101562 C 73.007812 149.757812 72.765625 148.441406 72.613281 147.175781 Z M 57.734375 164.789062 C 57.734375 161.050781 62.742188 157.164062 71.175781 154.636719 C 72.046875 157.914062 73.246094 161.332031 74.738281 164.789062 C 73.246094 168.253906 72.046875 171.667969 71.175781 174.945312 C 62.742188 172.417969 57.734375 168.53125 57.734375 164.789062 Z M 88.167969 190.875 C 83.074219 195.070312 78.558594 196.613281 75.761719 195.089844 C 72.972656 193.574219 71.828125 188.949219 72.613281 182.40625 C 72.765625 181.144531 73.007812 179.824219 73.289062 178.480469 C 76.34375 179.226562 79.679688 179.796875 83.230469 180.160156 C 85.484375 183.429688 87.867188 186.417969 90.308594 188.980469 C 89.597656 189.648438 88.882812 190.285156 88.167969 190.875 Z M 112.089844 182.40625 C 112.878906 188.949219 111.730469 193.574219 108.941406 195.089844 C 106.148438 196.613281 101.628906 195.070312 96.539062 190.875 C 95.820312 190.285156 95.105469 189.648438 94.390625 188.976562 C 96.832031 186.414062 99.214844 183.429688 101.46875 180.15625 C 105.023438 179.792969 108.359375 179.222656 111.410156 178.480469 C 111.695312 179.820312 111.9375 181.140625 112.089844 182.40625 Z M 113.527344 174.945312 C 112.65625 171.667969 111.457031 168.25 109.964844 164.789062 C 111.457031 161.328125 112.65625 157.914062 113.527344 154.636719 C 121.960938 157.164062 126.96875 161.050781 126.96875 164.789062 C 126.96875 168.53125 121.960938 172.417969 113.527344 174.945312 Z M 113.527344 174.945312 " clip-rule="nonzero"/></clipPath><linearGradient x1="32" gradientTransform="matrix(1.442308, 0, 0, 1.438399, 46.197757, 118.762207)" y1="7.690989" x2="32" gradientUnits="userSpaceOnUse" y2="55.462992" id="06ad37596f"><stop stop-opacity="1" stop-color="rgb(10.592651%, 42.529297%, 100%)" offset="0"/><stop stop-opacity="1" stop-color="rgb(10.868835%, 42.410278%, 100%)" offset="0.00390625"/><stop stop-opacity="1" stop-color="rgb(11.14502%, 42.29126%, 100%)" offset="0.0078125"/><stop stop-opacity="1" stop-color="rgb(11.421204%, 42.172241%, 100%)" offset="0.0117188"/><stop stop-opacity="1" stop-color="rgb(11.698914%, 42.053223%, 100%)" offset="0.015625"/><stop stop-opacity="1" stop-color="rgb(11.975098%, 41.934204%, 100%)" offset="0.0195312"/><stop stop-opacity="1" stop-color="rgb(12.251282%, 41.815186%, 100%)" offset="0.0234375"/><stop stop-opacity="1" stop-color="rgb(12.527466%, 41.694641%, 100%)" offset="0.0273438"/><stop stop-opacity="1" stop-color="rgb(12.805176%, 41.575623%, 100%)" offset="0.03125"/><stop stop-opacity="1" stop-color="rgb(13.08136%, 41.456604%, 100%)" offset="0.0351562"/><stop stop-opacity="1" stop-color="rgb(13.357544%, 41.337585%, 100%)" offset="0.0390625"/><stop stop-opacity="1" stop-color="rgb(13.633728%, 41.218567%, 100%)" offset="0.0429687"/><stop stop-opacity="1" stop-color="rgb(13.911438%, 41.099548%, 100%)" offset="0.046875"/><stop stop-opacity="1" stop-color="rgb(14.187622%, 40.979004%, 100%)" offset="0.0507812"/><stop stop-opacity="1" stop-color="rgb(14.463806%, 40.859985%, 100%)" offset="0.0546875"/><stop stop-opacity="1" stop-color="rgb(14.73999%, 40.740967%, 100%)" offset="0.0585938"/><stop stop-opacity="1" stop-color="rgb(15.0177%, 40.621948%, 100%)" offset="0.0625"/><stop stop-opacity="1" stop-color="rgb(15.293884%, 40.50293%, 100%)" offset="0.0664062"/><stop stop-opacity="1" stop-color="rgb(15.570068%, 40.383911%, 100%)" offset="0.0703125"/><stop stop-opacity="1" stop-color="rgb(15.846252%, 40.264893%, 100%)" offset="0.0742187"/><stop stop-opacity="1" stop-color="rgb(16.123962%, 40.145874%, 100%)" offset="0.078125"/><stop stop-opacity="1" stop-color="rgb(16.400146%, 40.02533%, 100%)" offset="0.0820312"/><stop stop-opacity="1" stop-color="rgb(16.676331%, 39.906311%, 100%)" offset="0.0859375"/><stop stop-opacity="1" stop-color="rgb(16.952515%, 39.787292%, 100%)" offset="0.0898437"/><stop stop-opacity="1" stop-color="rgb(17.230225%, 39.668274%, 100%)" offset="0.09375"/><stop stop-opacity="1" stop-color="rgb(17.506409%, 39.549255%, 100%)" offset="0.0976562"/><stop stop-opacity="1" stop-color="rgb(17.782593%, 39.430237%, 100%)" offset="0.101562"/><stop stop-opacity="1" stop-color="rgb(18.058777%, 39.311218%, 100%)" offset="0.105469"/><stop stop-opacity="1" stop-color="rgb(18.336487%, 39.1922%, 100%)" offset="0.109375"/><stop stop-opacity="1" stop-color="rgb(18.612671%, 39.071655%, 100%)" offset="0.113281"/><stop stop-opacity="1" stop-color="rgb(18.888855%, 38.952637%, 100%)" offset="0.117187"/><stop stop-opacity="1" stop-color="rgb(19.165039%, 38.833618%, 100%)" offset="0.121094"/><stop stop-opacity="1" stop-color="rgb(19.442749%, 38.7146%, 100%)" offset="0.125"/><stop stop-opacity="1" stop-color="rgb(19.718933%, 38.595581%, 100%)" offset="0.128906"/><stop stop-opacity="1" stop-color="rgb(19.995117%, 38.476562%, 100%)" offset="0.132812"/><stop stop-opacity="1" stop-color="rgb(20.271301%, 38.356018%, 100%)" offset="0.136719"/><stop stop-opacity="1" stop-color="rgb(20.549011%, 38.237%, 100%)" offset="0.140625"/><stop stop-opacity="1" stop-color="rgb(20.825195%, 38.117981%, 100%)" offset="0.144531"/><stop stop-opacity="1" stop-color="rgb(21.102905%, 37.998962%, 100%)" offset="0.148438"/><stop stop-opacity="1" stop-color="rgb(21.379089%, 37.879944%, 100%)" offset="0.152344"/><stop stop-opacity="1" stop-color="rgb(21.655273%, 37.760925%, 100%)" offset="0.15625"/><stop stop-opacity="1" stop-color="rgb(21.931458%, 37.641907%, 100%)" offset="0.160156"/><stop stop-opacity="1" stop-color="rgb(22.209167%, 37.522888%, 100%)" offset="0.164062"/><stop stop-opacity="1" stop-color="rgb(22.485352%, 37.402344%, 100%)" offset="0.167969"/><stop stop-opacity="1" stop-color="rgb(22.761536%, 37.283325%, 100%)" offset="0.171875"/><stop stop-opacity="1" stop-color="rgb(23.03772%, 37.164307%, 100%)" offset="0.175781"/><stop stop-opacity="1" stop-color="rgb(23.31543%, 37.045288%, 100%)" offset="0.179687"/><stop stop-opacity="1" stop-color="rgb(23.591614%, 36.92627%, 100%)" offset="0.183594"/><stop stop-opacity="1" stop-color="rgb(23.867798%, 36.807251%, 100%)" offset="0.1875"/><stop stop-opacity="1" stop-color="rgb(24.143982%, 36.686707%, 100%)" offset="0.191406"/><stop stop-opacity="1" stop-color="rgb(24.421692%, 36.567688%, 100%)" offset="0.195312"/><stop stop-opacity="1" stop-color="rgb(24.697876%, 36.448669%, 100%)" offset="0.199219"/><stop stop-opacity="1" stop-color="rgb(24.97406%, 36.329651%, 100%)" offset="0.203125"/><stop stop-opacity="1" stop-color="rgb(25.250244%, 36.210632%, 100%)" offset="0.207031"/><stop stop-opacity="1" stop-color="rgb(25.527954%, 36.091614%, 100%)" offset="0.210938"/><stop stop-opacity="1" stop-color="rgb(25.804138%, 35.972595%, 100%)" offset="0.214844"/><stop stop-opacity="1" stop-color="rgb(26.080322%, 35.853577%, 100%)" offset="0.21875"/><stop stop-opacity="1" stop-color="rgb(26.356506%, 35.733032%, 100%)" offset="0.222656"/><stop stop-opacity="1" stop-color="rgb(26.634216%, 35.614014%, 100%)" offset="0.226562"/><stop stop-opacity="1" stop-color="rgb(26.9104%, 35.494995%, 100%)" offset="0.230469"/><stop stop-opacity="1" stop-color="rgb(27.186584%, 35.375977%, 100%)" offset="0.234375"/><stop stop-opacity="1" stop-color="rgb(27.462769%, 35.256958%, 100%)" offset="0.238281"/><stop stop-opacity="1" stop-color="rgb(27.740479%, 35.137939%, 100%)" offset="0.242188"/><stop stop-opacity="1" stop-color="rgb(28.016663%, 35.017395%, 100%)" offset="0.246094"/><stop stop-opacity="1" stop-color="rgb(28.292847%, 34.898376%, 100%)" offset="0.25"/><stop stop-opacity="1" stop-color="rgb(28.569031%, 34.779358%, 100%)" offset="0.253906"/><stop stop-opacity="1" stop-color="rgb(28.846741%, 34.660339%, 100%)" offset="0.257812"/><stop stop-opacity="1" stop-color="rgb(29.122925%, 34.541321%, 100%)" offset="0.261719"/><stop stop-opacity="1" stop-color="rgb(29.399109%, 34.422302%, 100%)" offset="0.265625"/><stop stop-opacity="1" stop-color="rgb(29.675293%, 34.303284%, 100%)" offset="0.269531"/><stop stop-opacity="1" stop-color="rgb(29.953003%, 34.184265%, 100%)" offset="0.273437"/><stop stop-opacity="1" stop-color="rgb(30.229187%, 34.063721%, 100%)" offset="0.277344"/><stop stop-opacity="1" stop-color="rgb(30.505371%, 33.944702%, 100%)" offset="0.28125"/><stop stop-opacity="1" stop-color="rgb(30.781555%, 33.825684%, 100%)" offset="0.285156"/><stop stop-opacity="1" stop-color="rgb(31.059265%, 33.706665%, 100%)" offset="0.289062"/><stop stop-opacity="1" stop-color="rgb(31.335449%, 33.587646%, 100%)" offset="0.292969"/><stop stop-opacity="1" stop-color="rgb(31.613159%, 33.468628%, 100%)" offset="0.296875"/><stop stop-opacity="1" stop-color="rgb(31.889343%, 33.349609%, 100%)" offset="0.300781"/><stop stop-opacity="1" stop-color="rgb(32.165527%, 33.230591%, 100%)" offset="0.304688"/><stop stop-opacity="1" stop-color="rgb(32.441711%, 33.110046%, 100%)" offset="0.308594"/><stop stop-opacity="1" stop-color="rgb(32.719421%, 32.991028%, 100%)" offset="0.3125"/><stop stop-opacity="1" stop-color="rgb(32.995605%, 32.872009%, 100%)" offset="0.316406"/><stop stop-opacity="1" stop-color="rgb(33.27179%, 32.752991%, 100%)" offset="0.320312"/><stop stop-opacity="1" stop-color="rgb(33.547974%, 32.633972%, 100%)" offset="0.324219"/><stop stop-opacity="1" stop-color="rgb(33.825684%, 32.514954%, 100%)" offset="0.328125"/><stop stop-opacity="1" stop-color="rgb(34.101868%, 32.394409%, 100%)" offset="0.332031"/><stop stop-opacity="1" stop-color="rgb(34.378052%, 32.275391%, 100%)" offset="0.335938"/><stop stop-opacity="1" stop-color="rgb(34.654236%, 32.156372%, 100%)" offset="0.339844"/><stop stop-opacity="1" stop-color="rgb(34.931946%, 32.037354%, 100%)" offset="0.34375"/><stop stop-opacity="1" stop-color="rgb(35.20813%, 31.918335%, 100%)" offset="0.347656"/><stop stop-opacity="1" stop-color="rgb(35.484314%, 31.799316%, 100%)" offset="0.351562"/><stop stop-opacity="1" stop-color="rgb(35.760498%, 31.680298%, 100%)" offset="0.355469"/><stop stop-opacity="1" stop-color="rgb(36.038208%, 31.561279%, 100%)" offset="0.359375"/><stop stop-opacity="1" stop-color="rgb(36.314392%, 31.440735%, 100%)" offset="0.363281"/><stop stop-opacity="1" stop-color="rgb(36.590576%, 31.321716%, 100%)" offset="0.367187"/><stop stop-opacity="1" stop-color="rgb(36.86676%, 31.202698%, 100%)" offset="0.371094"/><stop stop-opacity="1" stop-color="rgb(37.14447%, 31.083679%, 100%)" offset="0.375"/><stop stop-opacity="1" stop-color="rgb(37.420654%, 30.964661%, 100%)" offset="0.378906"/><stop stop-opacity="1" stop-color="rgb(37.696838%, 30.845642%, 100%)" offset="0.382812"/><stop stop-opacity="1" stop-color="rgb(37.973022%, 30.725098%, 100%)" offset="0.386719"/><stop stop-opacity="1" stop-color="rgb(38.250732%, 30.606079%, 100%)" offset="0.390625"/><stop stop-opacity="1" stop-color="rgb(38.526917%, 30.487061%, 100%)" offset="0.394531"/><stop stop-opacity="1" stop-color="rgb(38.803101%, 30.368042%, 100%)" offset="0.398437"/><stop stop-opacity="1" stop-color="rgb(39.079285%, 30.249023%, 100%)" offset="0.402344"/><stop stop-opacity="1" stop-color="rgb(39.356995%, 30.130005%, 100%)" offset="0.40625"/><stop stop-opacity="1" stop-color="rgb(39.633179%, 30.010986%, 100%)" offset="0.410156"/><stop stop-opacity="1" stop-color="rgb(39.909363%, 29.891968%, 100%)" offset="0.414062"/><stop stop-opacity="1" stop-color="rgb(40.185547%, 29.771423%, 100%)" offset="0.417969"/><stop stop-opacity="1" stop-color="rgb(40.463257%, 29.652405%, 100%)" offset="0.421875"/><stop stop-opacity="1" stop-color="rgb(40.739441%, 29.533386%, 100%)" offset="0.425781"/><stop stop-opacity="1" stop-color="rgb(41.015625%, 29.414368%, 100%)" offset="0.429688"/><stop stop-opacity="1" stop-color="rgb(41.291809%, 29.295349%, 100%)" offset="0.433594"/><stop stop-opacity="1" stop-color="rgb(41.569519%, 29.176331%, 100%)" offset="0.4375"/><stop stop-opacity="1" stop-color="rgb(41.845703%, 29.057312%, 100%)" offset="0.441406"/><stop stop-opacity="1" stop-color="rgb(42.121887%, 28.938293%, 100%)" offset="0.445312"/><stop stop-opacity="1" stop-color="rgb(42.398071%, 28.817749%, 100%)" offset="0.449219"/><stop stop-opacity="1" stop-color="rgb(42.675781%, 28.69873%, 100%)" offset="0.453125"/><stop stop-opacity="1" stop-color="rgb(42.951965%, 28.579712%, 100%)" offset="0.457031"/><stop stop-opacity="1" stop-color="rgb(43.229675%, 28.460693%, 100%)" offset="0.460937"/><stop stop-opacity="1" stop-color="rgb(43.505859%, 28.341675%, 100%)" offset="0.464844"/><stop stop-opacity="1" stop-color="rgb(43.782043%, 28.222656%, 100%)" offset="0.46875"/><stop stop-opacity="1" stop-color="rgb(44.058228%, 28.102112%, 100%)" offset="0.472656"/><stop stop-opacity="1" stop-color="rgb(44.335938%, 27.983093%, 100%)" offset="0.476562"/><stop stop-opacity="1" stop-color="rgb(44.612122%, 27.864075%, 100%)" offset="0.480469"/><stop stop-opacity="1" stop-color="rgb(44.888306%, 27.745056%, 100%)" offset="0.484375"/><stop stop-opacity="1" stop-color="rgb(45.16449%, 27.626038%, 100%)" offset="0.488281"/><stop stop-opacity="1" stop-color="rgb(45.4422%, 27.507019%, 100%)" offset="0.492187"/><stop stop-opacity="1" stop-color="rgb(45.718384%, 27.388%, 100%)" offset="0.496094"/><stop stop-opacity="1" stop-color="rgb(45.994568%, 27.268982%, 100%)" offset="0.5"/><stop stop-opacity="1" stop-color="rgb(46.270752%, 27.148438%, 100%)" offset="0.503906"/><stop stop-opacity="1" stop-color="rgb(46.548462%, 27.029419%, 100%)" offset="0.507812"/><stop stop-opacity="1" stop-color="rgb(46.824646%, 26.9104%, 100%)" offset="0.511719"/><stop stop-opacity="1" stop-color="rgb(47.10083%, 26.791382%, 100%)" offset="0.515625"/><stop stop-opacity="1" stop-color="rgb(47.377014%, 26.672363%, 100%)" offset="0.519531"/><stop stop-opacity="1" stop-color="rgb(47.654724%, 26.553345%, 100%)" offset="0.523437"/><stop stop-opacity="1" stop-color="rgb(47.930908%, 26.4328%, 100%)" offset="0.527344"/><stop stop-opacity="1" stop-color="rgb(48.207092%, 26.313782%, 100%)" offset="0.53125"/><stop stop-opacity="1" stop-color="rgb(48.483276%, 26.194763%, 100%)" offset="0.535156"/><stop stop-opacity="1" stop-color="rgb(48.760986%, 26.075745%, 100%)" offset="0.539062"/><stop stop-opacity="1" stop-color="rgb(49.03717%, 25.956726%, 100%)" offset="0.542969"/><stop stop-opacity="1" stop-color="rgb(49.313354%, 25.837708%, 100%)" offset="0.546875"/><stop stop-opacity="1" stop-color="rgb(49.589539%, 25.718689%, 100%)" offset="0.550781"/><stop stop-opacity="1" stop-color="rgb(49.867249%, 25.59967%, 100%)" offset="0.554687"/><stop stop-opacity="1" stop-color="rgb(50.143433%, 25.479126%, 100%)" offset="0.558594"/><stop stop-opacity="1" stop-color="rgb(50.419617%, 25.360107%, 100%)" offset="0.5625"/><stop stop-opacity="1" stop-color="rgb(50.695801%, 25.241089%, 100%)" offset="0.566406"/><stop stop-opacity="1" stop-color="rgb(50.973511%, 25.12207%, 100%)" offset="0.570312"/><stop stop-opacity="1" stop-color="rgb(51.249695%, 25.003052%, 100%)" offset="0.574219"/><stop stop-opacity="1" stop-color="rgb(51.525879%, 24.884033%, 100%)" offset="0.578125"/><stop stop-opacity="1" stop-color="rgb(51.802063%, 24.763489%, 100%)" offset="0.582031"/><stop stop-opacity="1" stop-color="rgb(52.079773%, 24.64447%, 100%)" offset="0.585938"/><stop stop-opacity="1" stop-color="rgb(52.355957%, 24.525452%, 100%)" offset="0.589844"/><stop stop-opacity="1" stop-color="rgb(52.632141%, 24.406433%, 100%)" offset="0.59375"/><stop stop-opacity="1" stop-color="rgb(52.908325%, 24.287415%, 100%)" offset="0.597656"/><stop stop-opacity="1" stop-color="rgb(53.186035%, 24.168396%, 100%)" offset="0.601562"/><stop stop-opacity="1" stop-color="rgb(53.462219%, 24.049377%, 100%)" offset="0.605469"/><stop stop-opacity="1" stop-color="rgb(53.739929%, 23.930359%, 100%)" offset="0.609375"/><stop stop-opacity="1" stop-color="rgb(54.016113%, 23.809814%, 100%)" offset="0.613281"/><stop stop-opacity="1" stop-color="rgb(54.292297%, 23.690796%, 100%)" offset="0.617188"/><stop stop-opacity="1" stop-color="rgb(54.568481%, 23.571777%, 100%)" offset="0.621094"/><stop stop-opacity="1" stop-color="rgb(54.846191%, 23.452759%, 100%)" offset="0.625"/><stop stop-opacity="1" stop-color="rgb(55.122375%, 23.33374%, 100%)" offset="0.628906"/><stop stop-opacity="1" stop-color="rgb(55.39856%, 23.214722%, 100%)" offset="0.632812"/><stop stop-opacity="1" stop-color="rgb(55.674744%, 23.095703%, 100%)" offset="0.636719"/><stop stop-opacity="1" stop-color="rgb(55.952454%, 22.976685%, 100%)" offset="0.640625"/><stop stop-opacity="1" stop-color="rgb(56.228638%, 22.85614%, 100%)" offset="0.644531"/><stop stop-opacity="1" stop-color="rgb(56.504822%, 22.737122%, 100%)" offset="0.648437"/><stop stop-opacity="1" stop-color="rgb(56.781006%, 22.618103%, 100%)" offset="0.652344"/><stop stop-opacity="1" stop-color="rgb(57.058716%, 22.499084%, 100%)" offset="0.65625"/><stop stop-opacity="1" stop-color="rgb(57.3349%, 22.380066%, 100%)" offset="0.660156"/><stop stop-opacity="1" stop-color="rgb(57.611084%, 22.261047%, 100%)" offset="0.664062"/><stop stop-opacity="1" stop-color="rgb(57.887268%, 22.140503%, 100%)" offset="0.667969"/><stop stop-opacity="1" stop-color="rgb(58.164978%, 22.021484%, 100%)" offset="0.671875"/><stop stop-opacity="1" stop-color="rgb(58.441162%, 21.902466%, 100%)" offset="0.675781"/><stop stop-opacity="1" stop-color="rgb(58.717346%, 21.783447%, 100%)" offset="0.679687"/><stop stop-opacity="1" stop-color="rgb(58.99353%, 21.664429%, 100%)" offset="0.683594"/><stop stop-opacity="1" stop-color="rgb(59.27124%, 21.54541%, 100%)" offset="0.6875"/><stop stop-opacity="1" stop-color="rgb(59.547424%, 21.426392%, 100%)" offset="0.691406"/><stop stop-opacity="1" stop-color="rgb(59.823608%, 21.307373%, 100%)" offset="0.695312"/><stop stop-opacity="1" stop-color="rgb(60.099792%, 21.186829%, 100%)" offset="0.699219"/><stop stop-opacity="1" stop-color="rgb(60.377502%, 21.06781%, 100%)" offset="0.703125"/><stop stop-opacity="1" stop-color="rgb(60.653687%, 20.948792%, 100%)" offset="0.707031"/><stop stop-opacity="1" stop-color="rgb(60.929871%, 20.829773%, 100%)" offset="0.710937"/><stop stop-opacity="1" stop-color="rgb(61.206055%, 20.710754%, 100%)" offset="0.714844"/><stop stop-opacity="1" stop-color="rgb(61.483765%, 20.591736%, 100%)" offset="0.71875"/><stop stop-opacity="1" stop-color="rgb(61.759949%, 20.471191%, 100%)" offset="0.722656"/><stop stop-opacity="1" stop-color="rgb(62.036133%, 20.352173%, 100%)" offset="0.726562"/><stop stop-opacity="1" stop-color="rgb(62.312317%, 20.233154%, 100%)" offset="0.730469"/><stop stop-opacity="1" stop-color="rgb(62.590027%, 20.114136%, 100%)" offset="0.734375"/><stop stop-opacity="1" stop-color="rgb(62.866211%, 19.995117%, 100%)" offset="0.738281"/><stop stop-opacity="1" stop-color="rgb(63.142395%, 19.876099%, 100%)" offset="0.742187"/><stop stop-opacity="1" stop-color="rgb(63.418579%, 19.75708%, 100%)" offset="0.746094"/><stop stop-opacity="1" stop-color="rgb(63.696289%, 19.638062%, 100%)" offset="0.75"/><stop stop-opacity="1" stop-color="rgb(63.972473%, 19.517517%, 100%)" offset="0.753906"/><stop stop-opacity="1" stop-color="rgb(64.248657%, 19.398499%, 100%)" offset="0.757812"/><stop stop-opacity="1" stop-color="rgb(64.524841%, 19.27948%, 100%)" offset="0.761719"/><stop stop-opacity="1" stop-color="rgb(64.802551%, 19.160461%, 100%)" offset="0.765625"/><stop stop-opacity="1" stop-color="rgb(65.078735%, 19.041443%, 100%)" offset="0.769531"/><stop stop-opacity="1" stop-color="rgb(65.356445%, 18.922424%, 100%)" offset="0.773437"/><stop stop-opacity="1" stop-color="rgb(65.632629%, 18.803406%, 100%)" offset="0.777344"/><stop stop-opacity="1" stop-color="rgb(65.908813%, 18.684387%, 100%)" offset="0.78125"/><stop stop-opacity="1" stop-color="rgb(66.184998%, 18.563843%, 100%)" offset="0.785156"/><stop stop-opacity="1" stop-color="rgb(66.462708%, 18.444824%, 100%)" offset="0.789062"/><stop stop-opacity="1" stop-color="rgb(66.738892%, 18.325806%, 100%)" offset="0.792969"/><stop stop-opacity="1" stop-color="rgb(67.015076%, 18.206787%, 100%)" offset="0.796875"/><stop stop-opacity="1" stop-color="rgb(67.29126%, 18.087769%, 100%)" offset="0.800781"/><stop stop-opacity="1" stop-color="rgb(67.56897%, 17.96875%, 100%)" offset="0.804687"/><stop stop-opacity="1" stop-color="rgb(67.845154%, 17.848206%, 100%)" offset="0.808594"/><stop stop-opacity="1" stop-color="rgb(68.121338%, 17.729187%, 100%)" offset="0.8125"/><stop stop-opacity="1" stop-color="rgb(68.397522%, 17.610168%, 100%)" offset="0.816406"/><stop stop-opacity="1" stop-color="rgb(68.675232%, 17.49115%, 100%)" offset="0.820312"/><stop stop-opacity="1" stop-color="rgb(68.951416%, 17.372131%, 100%)" offset="0.824219"/><stop stop-opacity="1" stop-color="rgb(69.2276%, 17.253113%, 100%)" offset="0.828125"/><stop stop-opacity="1" stop-color="rgb(69.503784%, 17.134094%, 100%)" offset="0.832031"/><stop stop-opacity="1" stop-color="rgb(69.781494%, 17.015076%, 100%)" offset="0.835938"/><stop stop-opacity="1" stop-color="rgb(70.057678%, 16.894531%, 100%)" offset="0.839844"/><stop stop-opacity="1" stop-color="rgb(70.333862%, 16.775513%, 100%)" offset="0.84375"/><stop stop-opacity="1" stop-color="rgb(70.610046%, 16.656494%, 100%)" offset="0.847656"/><stop stop-opacity="1" stop-color="rgb(70.887756%, 16.537476%, 100%)" offset="0.851562"/><stop stop-opacity="1" stop-color="rgb(71.16394%, 16.418457%, 100%)" offset="0.855469"/><stop stop-opacity="1" stop-color="rgb(71.440125%, 16.299438%, 100%)" offset="0.859375"/><stop stop-opacity="1" stop-color="rgb(71.716309%, 16.178894%, 100%)" offset="0.863281"/><stop stop-opacity="1" stop-color="rgb(71.994019%, 16.059875%, 100%)" offset="0.867188"/><stop stop-opacity="1" stop-color="rgb(72.270203%, 15.940857%, 100%)" offset="0.871094"/><stop stop-opacity="1" stop-color="rgb(72.546387%, 15.821838%, 100%)" offset="0.875"/><stop stop-opacity="1" stop-color="rgb(72.822571%, 15.70282%, 100%)" offset="0.878906"/><stop stop-opacity="1" stop-color="rgb(73.100281%, 15.583801%, 100%)" offset="0.882812"/><stop stop-opacity="1" stop-color="rgb(73.376465%, 15.464783%, 100%)" offset="0.886719"/><stop stop-opacity="1" stop-color="rgb(73.652649%, 15.345764%, 100%)" offset="0.890625"/><stop stop-opacity="1" stop-color="rgb(73.928833%, 15.22522%, 100%)" offset="0.894531"/><stop stop-opacity="1" stop-color="rgb(74.206543%, 15.106201%, 100%)" offset="0.898437"/><stop stop-opacity="1" stop-color="rgb(74.482727%, 14.987183%, 100%)" offset="0.902344"/><stop stop-opacity="1" stop-color="rgb(74.758911%, 14.868164%, 100%)" offset="0.90625"/><stop stop-opacity="1" stop-color="rgb(75.035095%, 14.749146%, 100%)" offset="0.910156"/><stop stop-opacity="1" stop-color="rgb(75.312805%, 14.630127%, 100%)" offset="0.914062"/><stop stop-opacity="1" stop-color="rgb(75.588989%, 14.509583%, 100%)" offset="0.917969"/><stop stop-opacity="1" stop-color="rgb(75.866699%, 14.390564%, 100%)" offset="0.921875"/><stop stop-opacity="1" stop-color="rgb(76.142883%, 14.271545%, 100%)" offset="0.925781"/><stop stop-opacity="1" stop-color="rgb(76.419067%, 14.152527%, 100%)" offset="0.929687"/><stop stop-opacity="1" stop-color="rgb(76.695251%, 14.033508%, 100%)" offset="0.933594"/><stop stop-opacity="1" stop-color="rgb(76.972961%, 13.91449%, 100%)" offset="0.9375"/><stop stop-opacity="1" stop-color="rgb(77.249146%, 13.795471%, 100%)" offset="0.941406"/><stop stop-opacity="1" stop-color="rgb(77.52533%, 13.676453%, 100%)" offset="0.945312"/><stop stop-opacity="1" stop-color="rgb(77.801514%, 13.555908%, 100%)" offset="0.949219"/><stop stop-opacity="1" stop-color="rgb(78.079224%, 13.43689%, 100%)" offset="0.953125"/><stop stop-opacity="1" stop-color="rgb(78.239441%, 13.368225%, 100%)" offset="0.96875"/><stop stop-opacity="1" stop-color="rgb(78.399658%, 13.299561%, 100%)" offset="1"/></linearGradient></defs><g clip-path="url(#6b5bf310b6)"><g clip-path="url(#e761cb3f5f)"><path fill="url(#806acef809)" d="M 83.699219 156.160156 L 83.699219 173.421875 L 101.003906 173.421875 L 101.003906 156.160156 Z M 83.699219 156.160156 " fill-rule="nonzero"/></g></g><g clip-path="url(#cb4464c032)"><g clip-path="url(#4cb41745ff)"><path fill="url(#06ad37596f)" d="M 54.851562 129.824219 L 54.851562 198.539062 L 129.851562 198.539062 L 129.851562 129.824219 Z M 54.851562 129.824219 " fill-rule="nonzero"/></g></g><g fill="#000000" fill-opacity="1"><g transform="translate(139.282203, 183.109627)"><g><path d="M 7.890625 0 C 8.457031 0 8.816406 -0.414062 8.816406 -0.980469 L 8.816406 -1.082031 C 8.558594 -5.363281 8.457031 -9.539062 8.457031 -13.820312 C 10.46875 -12.632812 11.136719 -11.859375 22.171875 -2.21875 C 22.328125 -2.0625 22.585938 -1.960938 22.894531 -1.960938 C 23.203125 -1.960938 23.460938 -2.0625 23.667969 -2.320312 C 23.824219 -2.578125 23.925781 -2.785156 23.925781 -2.992188 C 23.925781 -3.25 23.824219 -3.507812 23.566406 -3.765625 C 12.632812 -13.457031 11.5 -14.4375 9.074219 -15.832031 C 18.511719 -20.832031 22.6875 -26.144531 22.6875 -30.21875 C 22.6875 -34.34375 18.613281 -37.074219 11.550781 -37.074219 L 10.675781 -37.074219 C 10.417969 -37.074219 10.105469 -37.074219 9.847656 -37.023438 L 9.953125 -37.847656 C 10.003906 -38.46875 9.589844 -38.984375 8.972656 -38.984375 C 8.40625 -38.984375 8.042969 -38.621094 7.890625 -38.054688 L 7.734375 -36.816406 C 6.136719 -36.609375 4.691406 -36.25 3.195312 -35.785156 C 2.734375 -35.632812 2.476562 -35.21875 2.476562 -34.804688 C 2.476562 -34.652344 2.476562 -34.546875 2.527344 -34.496094 C 2.628906 -34.03125 2.9375 -33.773438 3.507812 -33.773438 C 3.660156 -33.773438 3.765625 -33.773438 3.816406 -33.828125 C 5 -34.1875 6.238281 -34.496094 7.527344 -34.703125 C 6.910156 -28.824219 6.546875 -22.894531 6.445312 -16.964844 C 5.515625 -17.222656 4.589844 -17.324219 3.660156 -17.324219 C 0.722656 -17.324219 -1.390625 -15.984375 -1.960938 -14.695312 C -2.0625 -14.4375 -2.113281 -14.179688 -2.113281 -13.972656 C -2.113281 -12.996094 -1.339844 -12.117188 0.0507812 -12.117188 C 0.515625 -12.117188 1.03125 -12.167969 1.597656 -12.425781 C 3.300781 -13.097656 4.898438 -13.714844 6.394531 -14.488281 C 6.394531 -9.953125 6.445312 -5.464844 6.804688 -0.929688 C 6.804688 -0.359375 7.21875 0 7.785156 0 Z M 8.507812 -17.894531 C 8.664062 -23.617188 9.023438 -29.238281 9.644531 -34.960938 C 9.953125 -35.011719 10.261719 -35.011719 10.570312 -35.011719 L 11.550781 -35.011719 C 15.675781 -35.011719 20.574219 -34.03125 20.574219 -30.0625 C 20.574219 -25.164062 12.839844 -20.160156 8.507812 -17.894531 Z M 0.101562 -14.128906 C 0.464844 -14.488281 1.496094 -15.109375 3.09375 -15.261719 C 0.773438 -14.179688 0.359375 -14.128906 0.101562 -14.128906 Z M 0.101562 -14.128906 "/></g></g></g><g fill="#000000" fill-opacity="1"><g transform="translate(163.206971, 183.109627)"><g><path d="M 5.414062 -6.859375 C 8.765625 -6.859375 12.890625 -8.765625 16.757812 -15.109375 C 16.863281 -15.261719 16.914062 -15.417969 16.914062 -15.625 C 16.914062 -16.089844 16.757812 -16.347656 16.398438 -16.5 C 16.242188 -16.605469 16.035156 -16.65625 15.882812 -16.65625 C 15.519531 -16.65625 15.210938 -16.5 15.003906 -16.191406 C 13.199219 -13.148438 11.242188 -11.136719 9.179688 -9.953125 C 7.992188 -9.332031 6.601562 -8.921875 5.207031 -8.921875 C 3.300781 -8.921875 1.648438 -9.746094 1.648438 -11.964844 C 1.648438 -12.222656 1.703125 -12.480469 1.753906 -12.839844 C 5.207031 -13.097656 9.28125 -15.625 9.28125 -18.355469 C 9.28125 -19.851562 8.148438 -21.039062 6.496094 -21.039062 C 5.464844 -21.039062 4.226562 -20.574219 2.9375 -19.335938 C 0.929688 -17.429688 -0.359375 -14.488281 -0.359375 -11.964844 C -0.359375 -9.230469 1.238281 -6.859375 5.414062 -6.859375 Z M 2.476562 -15.058594 C 3.867188 -17.945312 5.570312 -18.976562 6.546875 -18.976562 C 6.910156 -18.976562 7.117188 -18.871094 7.167969 -18.613281 C 7.425781 -17.429688 5 -15.46875 2.476562 -15.058594 Z M 2.476562 -15.058594 "/></g></g></g><g fill="#000000" fill-opacity="1"><g transform="translate(177.54121, 183.109627)"><g><path d="M -0.15625 -7.320312 C 0.308594 -7.011719 0.824219 -6.859375 1.390625 -6.859375 C 3.300781 -6.859375 5.515625 -9.074219 6.703125 -10.984375 C 6.546875 -8.558594 7.683594 -6.859375 9.488281 -6.859375 C 11.550781 -6.859375 14.542969 -9.074219 17.839844 -15.109375 C 17.894531 -15.316406 17.945312 -15.46875 17.945312 -15.574219 C 17.945312 -15.984375 17.738281 -16.292969 17.378906 -16.5 C 17.273438 -16.550781 17.121094 -16.605469 16.914062 -16.605469 C 16.5 -16.605469 16.191406 -16.449219 15.984375 -16.089844 C 14.335938 -12.789062 11.292969 -8.972656 9.796875 -8.972656 C 9.230469 -8.972656 8.921875 -9.4375 8.921875 -10.828125 C 8.921875 -11.5 8.972656 -12.324219 9.179688 -13.355469 C 9.332031 -14.4375 9.539062 -15.519531 9.902344 -16.5 C 10.160156 -17.273438 9.695312 -17.945312 8.921875 -17.945312 C 8.558594 -17.945312 8.25 -17.738281 7.992188 -17.324219 C 6.753906 -14.953125 4.742188 -11.035156 2.628906 -9.488281 C 2.164062 -9.128906 1.804688 -8.972656 1.445312 -8.972656 C 0.875 -8.972656 0.617188 -9.386719 0.617188 -10.261719 C 0.617188 -12.941406 3.660156 -18.925781 9.179688 -18.925781 C 9.746094 -18.925781 10.210938 -19.386719 10.210938 -19.957031 C 10.210938 -20.523438 9.746094 -20.988281 9.179688 -20.988281 C 2.734375 -20.988281 -1.390625 -14.4375 -1.390625 -10.261719 C -1.390625 -8.972656 -0.980469 -7.890625 -0.15625 -7.320312 Z M -0.15625 -7.320312 "/></g></g></g><g fill="#000000" fill-opacity="1"><g transform="translate(192.958249, 183.109627)"><g><path d="M 5.414062 -6.910156 C 8.765625 -6.910156 12.941406 -8.816406 16.757812 -15.109375 C 16.863281 -15.261719 16.914062 -15.417969 16.914062 -15.675781 C 16.914062 -16.035156 16.757812 -16.347656 16.398438 -16.550781 C 16.292969 -16.605469 16.140625 -16.65625 15.933594 -16.65625 C 15.519531 -16.65625 15.210938 -16.5 15.003906 -16.191406 C 11.707031 -10.726562 7.992188 -8.871094 5.363281 -8.871094 C 3.453125 -8.871094 2.164062 -9.746094 1.804688 -10.933594 C 1.703125 -11.292969 1.648438 -11.652344 1.648438 -12.066406 C 1.648438 -15.210938 4.898438 -19.027344 6.496094 -19.027344 C 6.859375 -19.027344 7.0625 -18.871094 7.21875 -18.5625 L 7.21875 -18.410156 C 7.167969 -18.203125 7.117188 -18.046875 7.117188 -17.996094 C 7.117188 -17.582031 7.320312 -17.273438 7.734375 -17.015625 C 7.941406 -16.964844 8.09375 -16.914062 8.148438 -16.914062 C 8.558594 -16.914062 8.871094 -17.121094 9.128906 -17.582031 C 9.28125 -17.839844 9.332031 -18.152344 9.332031 -18.511719 C 9.332031 -19.902344 7.992188 -21.089844 6.496094 -21.089844 C 3.042969 -21.089844 -0.359375 -16.035156 -0.359375 -11.910156 C -0.359375 -9.179688 1.1875 -6.910156 5.414062 -6.910156 Z M 5.414062 -6.910156 "/></g></g></g><g fill="#000000" fill-opacity="1"><g transform="translate(207.189363, 183.109627)"><g><path d="M 2.0625 -6.601562 C 2.628906 -6.601562 3.042969 -7.117188 3.042969 -7.683594 C 2.886719 -10.519531 2.835938 -13.199219 2.835938 -15.832031 C 2.835938 -22.070312 3.195312 -27.898438 3.96875 -33.621094 L 15.984375 -33.929688 C 16.550781 -33.929688 17.015625 -34.394531 17.015625 -34.960938 C 17.015625 -35.527344 16.550781 -35.992188 15.933594 -35.992188 L 4.226562 -35.683594 C 4.589844 -37.953125 5 -40.167969 5.414062 -42.386719 C 5.570312 -43.003906 5.105469 -43.625 4.433594 -43.625 C 3.917969 -43.625 3.558594 -43.367188 3.402344 -42.800781 C 2.9375 -40.476562 2.527344 -38.105469 2.164062 -35.683594 L -7.269531 -35.375 C -7.835938 -35.375 -8.25 -35.011719 -8.25 -34.445312 L -8.25 -34.34375 C -8.25 -33.773438 -7.785156 -33.3125 -7.21875 -33.3125 L 1.855469 -33.570312 C 1.132812 -27.898438 0.773438 -21.964844 0.773438 -15.832031 C 0.773438 -13.148438 0.824219 -10.46875 0.980469 -7.578125 C 0.980469 -7.011719 1.445312 -6.601562 2.011719 -6.601562 Z M 2.0625 -6.601562 "/></g></g></g><g fill="#000000" fill-opacity="1"><g transform="translate(216.883016, 183.109627)"><g><path d="M 6.960938 0.0507812 C 10.878906 0.0507812 13.046875 -2.992188 13.046875 -6.960938 C 13.046875 -8.765625 12.582031 -10.828125 11.601562 -12.839844 C 13.304688 -13.40625 15.46875 -13.714844 17.945312 -13.714844 C 18.5625 -13.714844 19.285156 -13.664062 19.957031 -13.613281 C 20.574219 -13.5625 21.039062 -14.027344 21.039062 -14.644531 C 21.039062 -15.210938 20.675781 -15.625 20.109375 -15.675781 C 19.335938 -15.726562 18.613281 -15.777344 17.839844 -15.777344 C 14.953125 -15.777344 12.582031 -15.316406 10.570312 -14.695312 C 8.972656 -17.222656 6.910156 -19.386719 5.105469 -21.605469 C 3.402344 -23.824219 2.0625 -26.453125 2.0625 -28.980469 C 2.0625 -30.578125 2.527344 -32.074219 3.765625 -33.3125 C 4.847656 -34.394531 6.03125 -34.910156 7.375 -34.910156 C 10.105469 -34.910156 12.582031 -32.691406 13.304688 -29.496094 C 13.457031 -28.929688 13.820312 -28.671875 14.335938 -28.671875 L 14.542969 -28.671875 C 15.109375 -28.824219 15.367188 -29.1875 15.367188 -29.703125 L 15.367188 -29.90625 C 14.542969 -34.238281 10.984375 -36.972656 7.375 -36.972656 C 5.570312 -36.972656 3.765625 -36.351562 2.269531 -34.753906 C 0.671875 -33.105469 0 -31.09375 0 -29.03125 C 0 -26.09375 1.390625 -22.945312 3.453125 -20.316406 C 5.15625 -18.097656 7.117188 -16.191406 8.613281 -13.972656 C 5.722656 -12.738281 2.476562 -10.519531 1.132812 -7.683594 C 0.722656 -6.804688 0.515625 -5.980469 0.515625 -5.257812 C 0.515625 -2.164062 3.507812 0.0507812 6.960938 0.0507812 Z M 8.972656 -2.578125 C 8.40625 -2.21875 7.683594 -2.0625 6.804688 -2.0625 C 4.742188 -2.0625 2.628906 -3.25 2.628906 -5.257812 C 2.628906 -5.773438 2.734375 -6.289062 2.992188 -6.753906 C 4.226562 -9.230469 7.117188 -11.136719 9.644531 -12.167969 C 10.417969 -10.570312 10.984375 -8.613281 10.984375 -6.804688 C 10.984375 -5 10.417969 -3.402344 8.972656 -2.578125 Z M 8.972656 -2.578125 "/></g></g></g><g fill="#000000" fill-opacity="1"><g transform="translate(236.579699, 183.109627)"><g><path d="M 2.0625 -6.601562 C 2.628906 -6.601562 3.042969 -7.117188 3.042969 -7.683594 C 2.886719 -10.519531 2.835938 -13.199219 2.835938 -15.832031 C 2.835938 -22.070312 3.195312 -27.898438 3.96875 -33.621094 L 15.984375 -33.929688 C 16.550781 -33.929688 17.015625 -34.394531 17.015625 -34.960938 C 17.015625 -35.527344 16.550781 -35.992188 15.933594 -35.992188 L 4.226562 -35.683594 C 4.589844 -37.953125 5 -40.167969 5.414062 -42.386719 C 5.570312 -43.003906 5.105469 -43.625 4.433594 -43.625 C 3.917969 -43.625 3.558594 -43.367188 3.402344 -42.800781 C 2.9375 -40.476562 2.527344 -38.105469 2.164062 -35.683594 L -7.269531 -35.375 C -7.835938 -35.375 -8.25 -35.011719 -8.25 -34.445312 L -8.25 -34.34375 C -8.25 -33.773438 -7.785156 -33.3125 -7.21875 -33.3125 L 1.855469 -33.570312 C 1.132812 -27.898438 0.773438 -21.964844 0.773438 -15.832031 C 0.773438 -13.148438 0.824219 -10.46875 0.980469 -7.578125 C 0.980469 -7.011719 1.445312 -6.601562 2.011719 -6.601562 Z M 2.0625 -6.601562 "/></g></g></g><g fill="#000000" fill-opacity="1"><g transform="translate(246.273353, 183.109627)"><g><path d="M -0.15625 -7.320312 C 0.308594 -7.011719 0.824219 -6.859375 1.390625 -6.859375 C 3.300781 -6.859375 5.515625 -9.074219 6.703125 -10.984375 C 6.546875 -8.558594 7.683594 -6.859375 9.488281 -6.859375 C 11.550781 -6.859375 14.542969 -9.074219 17.839844 -15.109375 C 17.894531 -15.316406 17.945312 -15.46875 17.945312 -15.574219 C 17.945312 -15.984375 17.738281 -16.292969 17.378906 -16.5 C 17.273438 -16.550781 17.121094 -16.605469 16.914062 -16.605469 C 16.5 -16.605469 16.191406 -16.449219 15.984375 -16.089844 C 14.335938 -12.789062 11.292969 -8.972656 9.796875 -8.972656 C 9.230469 -8.972656 8.921875 -9.4375 8.921875 -10.828125 C 8.921875 -11.5 8.972656 -12.324219 9.179688 -13.355469 C 9.332031 -14.4375 9.539062 -15.519531 9.902344 -16.5 C 10.160156 -17.273438 9.695312 -17.945312 8.921875 -17.945312 C 8.558594 -17.945312 8.25 -17.738281 7.992188 -17.324219 C 6.753906 -14.953125 4.742188 -11.035156 2.628906 -9.488281 C 2.164062 -9.128906 1.804688 -8.972656 1.445312 -8.972656 C 0.875 -8.972656 0.617188 -9.386719 0.617188 -10.261719 C 0.617188 -12.941406 3.660156 -18.925781 9.179688 -18.925781 C 9.746094 -18.925781 10.210938 -19.386719 10.210938 -19.957031 C 10.210938 -20.523438 9.746094 -20.988281 9.179688 -20.988281 C 2.734375 -20.988281 -1.390625 -14.4375 -1.390625 -10.261719 C -1.390625 -8.972656 -0.980469 -7.890625 -0.15625 -7.320312 Z M -0.15625 -7.320312 "/></g></g></g><g fill="#000000" fill-opacity="1"><g transform="translate(261.690392, 183.109627)"><g><path d="M -1.390625 15.417969 C -0.824219 15.675781 -0.257812 15.777344 0.207031 15.777344 C 1.804688 15.777344 3.660156 14.851562 5.464844 12.015625 C 9.230469 6.03125 10.3125 -0.515625 10.519531 -7.578125 C 12.789062 -9.847656 15.160156 -11.964844 17.378906 -14.078125 C 17.582031 -14.285156 17.6875 -14.542969 17.6875 -14.851562 C 17.6875 -15.109375 17.582031 -15.367188 17.378906 -15.574219 C 17.171875 -15.777344 16.914062 -15.882812 16.65625 -15.882812 C 16.398438 -15.882812 16.140625 -15.777344 15.933594 -15.574219 L 10.519531 -10.46875 C 10.519531 -13.304688 10.417969 -16.089844 10.363281 -19.027344 L 10.363281 -19.234375 C 10.3125 -19.902344 9.953125 -20.214844 9.332031 -20.214844 C 8.765625 -20.265625 8.355469 -19.902344 8.300781 -19.335938 C 7.734375 -14.800781 4.332031 -9.230469 1.90625 -8.300781 C 1.648438 -8.199219 1.445312 -8.148438 1.289062 -8.148438 C 0.617188 -8.148438 0.308594 -8.664062 0.308594 -9.746094 C 0.308594 -12.425781 2.734375 -17.378906 6.703125 -18.203125 C 7.269531 -18.304688 7.527344 -18.613281 7.527344 -19.183594 L 7.527344 -19.386719 C 7.375 -19.957031 6.960938 -20.214844 6.496094 -20.214844 L 6.289062 -20.214844 C 1.546875 -19.285156 -1.753906 -13.664062 -1.753906 -9.796875 C -1.753906 -8.507812 -1.339844 -7.375 -0.515625 -6.703125 C 0 -6.289062 0.617188 -6.085938 1.289062 -6.085938 C 3.917969 -6.085938 6.859375 -9.746094 8.457031 -12.996094 L 8.457031 -8.457031 C 3.558594 -3.558594 -1.082031 2.011719 -2.886719 8.765625 C -3.25 9.796875 -3.402344 10.933594 -3.402344 11.910156 C -3.402344 13.40625 -2.886719 14.746094 -1.390625 15.417969 Z M -0.566406 13.511719 C -1.082031 13.304688 -1.339844 12.683594 -1.339844 11.652344 C -1.339844 8.507812 1.496094 1.703125 8.355469 -5.414062 C 7.992188 0.722656 6.804688 5.929688 3.710938 10.878906 C 2.527344 12.738281 1.339844 13.664062 0.207031 13.664062 C -0.0507812 13.664062 -0.308594 13.613281 -0.566406 13.511719 Z M -0.566406 13.511719 "/></g></g></g><g fill="#000000" fill-opacity="1"><g transform="translate(277.055857, 183.109627)"><g><path d="M 1.03125 -7.269531 C 1.597656 -7.269531 2.0625 -7.683594 2.0625 -8.25 C 2.320312 -13.769531 7.683594 -19.851562 10.363281 -19.335938 C 10.933594 -19.183594 11.394531 -19.542969 11.550781 -20.109375 C 11.707031 -20.675781 11.34375 -21.191406 10.777344 -21.347656 C 10.417969 -21.398438 10.160156 -21.449219 9.953125 -21.449219 C 7.0625 -21.449219 4.023438 -18.097656 2.527344 -15.625 C 2.679688 -17.121094 2.734375 -18.667969 2.734375 -20.265625 C 2.734375 -20.832031 2.269531 -21.296875 1.703125 -21.296875 C 1.132812 -21.296875 0.671875 -20.832031 0.671875 -20.265625 C 0.617188 -16.347656 0.0507812 -12.375 0 -8.300781 C 0 -7.734375 0.464844 -7.320312 1.03125 -7.269531 Z M 1.03125 -7.269531 "/></g></g></g><g fill="#000000" fill-opacity="1"><g transform="translate(288.966686, 183.109627)"><g><path d="M -0.15625 -7.320312 C 0.308594 -7.011719 0.824219 -6.859375 1.390625 -6.859375 C 3.300781 -6.859375 5.515625 -9.074219 6.703125 -10.984375 C 6.546875 -8.558594 7.683594 -6.859375 9.488281 -6.859375 C 11.550781 -6.859375 14.542969 -9.074219 17.839844 -15.109375 C 17.894531 -15.316406 17.945312 -15.46875 17.945312 -15.574219 C 17.945312 -15.984375 17.738281 -16.292969 17.378906 -16.5 C 17.273438 -16.550781 17.121094 -16.605469 16.914062 -16.605469 C 16.5 -16.605469 16.191406 -16.449219 15.984375 -16.089844 C 14.335938 -12.789062 11.292969 -8.972656 9.796875 -8.972656 C 9.230469 -8.972656 8.921875 -9.4375 8.921875 -10.828125 C 8.921875 -11.5 8.972656 -12.324219 9.179688 -13.355469 C 9.332031 -14.4375 9.539062 -15.519531 9.902344 -16.5 C 10.160156 -17.273438 9.695312 -17.945312 8.921875 -17.945312 C 8.558594 -17.945312 8.25 -17.738281 7.992188 -17.324219 C 6.753906 -14.953125 4.742188 -11.035156 2.628906 -9.488281 C 2.164062 -9.128906 1.804688 -8.972656 1.445312 -8.972656 C 0.875 -8.972656 0.617188 -9.386719 0.617188 -10.261719 C 0.617188 -12.941406 3.660156 -18.925781 9.179688 -18.925781 C 9.746094 -18.925781 10.210938 -19.386719 10.210938 -19.957031 C 10.210938 -20.523438 9.746094 -20.988281 9.179688 -20.988281 C 2.734375 -20.988281 -1.390625 -14.4375 -1.390625 -10.261719 C -1.390625 -8.972656 -0.980469 -7.890625 -0.15625 -7.320312 Z M -0.15625 -7.320312 "/></g></g></g><g fill="#000000" fill-opacity="1"><g transform="translate(304.383717, 183.109627)"><g><path d="M 1.597656 -6.804688 C 2.164062 -6.804688 2.476562 -7.0625 2.578125 -7.578125 C 3.96875 -12.941406 6.960938 -18.5625 7.683594 -18.976562 C 8.042969 -18.152344 7.941406 -15.210938 8.148438 -9.386719 C 8.199219 -8.816406 8.558594 -8.40625 9.128906 -8.40625 C 9.695312 -8.355469 10.054688 -8.664062 10.210938 -9.230469 C 10.46875 -10.726562 11.757812 -15.109375 12.839844 -16.605469 C 13.253906 -15.160156 13.5625 -10.726562 16.964844 -10.160156 C 17.121094 -10.160156 17.273438 -10.105469 17.480469 -10.105469 C 19.957031 -10.105469 22.328125 -12.941406 24.027344 -14.902344 C 24.183594 -15.058594 24.234375 -15.261719 24.234375 -15.519531 C 24.234375 -15.882812 24.082031 -16.140625 23.824219 -16.347656 C 23.667969 -16.5 23.460938 -16.605469 23.203125 -16.605469 C 22.84375 -16.605469 22.585938 -16.449219 22.378906 -16.191406 C 19.492188 -12.480469 17.945312 -12.015625 17.273438 -12.167969 C 14.800781 -12.582031 15.574219 -17.480469 13.871094 -18.613281 C 13.613281 -18.820312 13.304688 -18.925781 12.941406 -18.925781 C 12.789062 -18.925781 12.632812 -18.925781 12.582031 -18.871094 C 11.707031 -18.667969 10.828125 -17.582031 10.054688 -15.675781 C 9.902344 -18.769531 9.953125 -20.523438 8.300781 -20.933594 C 8.09375 -20.988281 7.890625 -21.039062 7.683594 -21.039062 C 7.011719 -21.039062 6.136719 -20.730469 5.363281 -19.335938 C 4.332031 -17.636719 3.402344 -15.832031 2.628906 -14.027344 L 2.628906 -20.160156 C 2.628906 -20.730469 2.164062 -21.191406 1.597656 -21.191406 C 1.03125 -21.191406 0.566406 -20.730469 0.566406 -20.160156 L 0.566406 -7.835938 C 0.566406 -7.269531 1.03125 -6.804688 1.597656 -6.804688 Z M 1.597656 -6.804688 "/></g></g></g></svg>